<svg width="104" height="72" viewBox="0 0 104 72" fill="none" xmlns="http://www.w3.org/2000/svg">
<path d="M21.2436 62H20.1868C20.1243 61.696 20.0149 61.429 19.8587 61.1989C19.7053 60.9688 19.5178 60.7756 19.2962 60.6193C19.0774 60.4602 18.8345 60.3409 18.5675 60.2614C18.3004 60.1818 18.022 60.142 17.7322 60.142C17.2038 60.142 16.7251 60.2756 16.2962 60.5426C15.87 60.8097 15.5305 61.2031 15.2777 61.723C15.0277 62.2429 14.9027 62.8807 14.9027 63.6364C14.9027 64.392 15.0277 65.0298 15.2777 65.5497C15.5305 66.0696 15.87 66.4631 16.2962 66.7301C16.7251 66.9972 17.2038 67.1307 17.7322 67.1307C18.022 67.1307 18.3004 67.0909 18.5675 67.0114C18.8345 66.9318 19.0774 66.8139 19.2962 66.6577C19.5178 66.4986 19.7053 66.304 19.8587 66.0739C20.0149 65.8409 20.1243 65.5739 20.1868 65.2727H21.2436C21.1641 65.7187 21.0192 66.1179 20.8089 66.4702C20.5987 66.8224 20.3374 67.1222 20.0249 67.3693C19.7124 67.6136 19.3615 67.7997 18.9723 67.9276C18.5859 68.0554 18.1726 68.1193 17.7322 68.1193C16.9879 68.1193 16.326 67.9375 15.7464 67.5739C15.1669 67.2102 14.7109 66.6932 14.3786 66.0227C14.0462 65.3523 13.88 64.5568 13.88 63.6364C13.88 62.7159 14.0462 61.9205 14.3786 61.25C14.7109 60.5795 15.1669 60.0625 15.7464 59.6989C16.326 59.3352 16.9879 59.1534 17.7322 59.1534C18.1726 59.1534 18.5859 59.2173 18.9723 59.3452C19.3615 59.473 19.7124 59.6605 20.0249 59.9077C20.3374 60.152 20.5987 60.4503 20.8089 60.8026C21.0192 61.152 21.1641 61.5511 21.2436 62ZM25.4741 68.1364C24.8832 68.1364 24.3647 67.9957 23.9187 67.7145C23.4755 67.4332 23.1289 67.0398 22.8789 66.5341C22.6317 66.0284 22.5082 65.4375 22.5082 64.7614C22.5082 64.0795 22.6317 63.4844 22.8789 62.9759C23.1289 62.4673 23.4755 62.0724 23.9187 61.7912C24.3647 61.5099 24.8832 61.3693 25.4741 61.3693C26.065 61.3693 26.582 61.5099 27.0252 61.7912C27.4712 62.0724 27.8178 62.4673 28.065 62.9759C28.315 63.4844 28.44 64.0795 28.44 64.7614C28.44 65.4375 28.315 66.0284 28.065 66.5341C27.8178 67.0398 27.4712 67.4332 27.0252 67.7145C26.582 67.9957 26.065 68.1364 25.4741 68.1364ZM25.4741 67.233C25.9229 67.233 26.2923 67.1179 26.582 66.8878C26.8718 66.6577 27.0863 66.3551 27.2255 65.9801C27.3647 65.6051 27.4343 65.1989 27.4343 64.7614C27.4343 64.3239 27.3647 63.9162 27.2255 63.5384C27.0863 63.1605 26.8718 62.8551 26.582 62.6222C26.2923 62.3892 25.9229 62.2727 25.4741 62.2727C25.0252 62.2727 24.6559 62.3892 24.3661 62.6222C24.0763 62.8551 23.8619 63.1605 23.7227 63.5384C23.5835 63.9162 23.5138 64.3239 23.5138 64.7614C23.5138 65.1989 23.5835 65.6051 23.7227 65.9801C23.8619 66.3551 24.0763 66.6577 24.3661 66.8878C24.6559 67.1179 25.0252 67.233 25.4741 67.233ZM29.9751 68V61.4545H30.9467V62.4773H31.032C31.1683 62.1278 31.3885 61.8565 31.6925 61.6634C31.9964 61.4673 32.3615 61.3693 32.7876 61.3693C33.2195 61.3693 33.5788 61.4673 33.8658 61.6634C34.1555 61.8565 34.3814 62.1278 34.5433 62.4773H34.6115C34.7791 62.1392 35.0305 61.8707 35.3658 61.6719C35.701 61.4702 36.103 61.3693 36.5717 61.3693C37.157 61.3693 37.6357 61.5526 38.0078 61.919C38.38 62.2827 38.5661 62.8494 38.5661 63.6193V68H37.5604V63.6193C37.5604 63.1364 37.4283 62.7912 37.1641 62.5838C36.8999 62.3764 36.5888 62.2727 36.2308 62.2727C35.7706 62.2727 35.4141 62.4119 35.1612 62.6903C34.9084 62.9659 34.782 63.3153 34.782 63.7386V68H33.7592V63.517C33.7592 63.1449 33.6385 62.8452 33.397 62.6179C33.1555 62.3878 32.8445 62.2727 32.4638 62.2727C32.2024 62.2727 31.9581 62.3423 31.7308 62.4815C31.5064 62.6207 31.3246 62.8139 31.1854 63.0611C31.049 63.3054 30.9808 63.5881 30.9808 63.9091V68H29.9751ZM40.4048 68V61.4545H41.3764V62.4773H41.4616C41.598 62.1278 41.8182 61.8565 42.1222 61.6634C42.4261 61.4673 42.7912 61.3693 43.2173 61.3693C43.6491 61.3693 44.0085 61.4673 44.2955 61.6634C44.5852 61.8565 44.8111 62.1278 44.973 62.4773H45.0412C45.2088 62.1392 45.4602 61.8707 45.7955 61.6719C46.1307 61.4702 46.5327 61.3693 47.0014 61.3693C47.5866 61.3693 48.0653 61.5526 48.4375 61.919C48.8097 62.2827 48.9957 62.8494 48.9957 63.6193V68H47.9901V63.6193C47.9901 63.1364 47.858 62.7912 47.5938 62.5838C47.3295 62.3764 47.0185 62.2727 46.6605 62.2727C46.2003 62.2727 45.8438 62.4119 45.5909 62.6903C45.3381 62.9659 45.2116 63.3153 45.2116 63.7386V68H44.1889V63.517C44.1889 63.1449 44.0682 62.8452 43.8267 62.6179C43.5852 62.3878 43.2741 62.2727 42.8935 62.2727C42.6321 62.2727 42.3878 62.3423 42.1605 62.4815C41.9361 62.6207 41.7543 62.8139 41.6151 63.0611C41.4787 63.3054 41.4105 63.5881 41.4105 63.9091V68H40.4048ZM53.4936 68.1364C52.9027 68.1364 52.3842 67.9957 51.9382 67.7145C51.495 67.4332 51.1484 67.0398 50.8984 66.5341C50.6513 66.0284 50.5277 65.4375 50.5277 64.7614C50.5277 64.0795 50.6513 63.4844 50.8984 62.9759C51.1484 62.4673 51.495 62.0724 51.9382 61.7912C52.3842 61.5099 52.9027 61.3693 53.4936 61.3693C54.0845 61.3693 54.6016 61.5099 55.0447 61.7912C55.4908 62.0724 55.8374 62.4673 56.0845 62.9759C56.3345 63.4844 56.4595 64.0795 56.4595 64.7614C56.4595 65.4375 56.3345 66.0284 56.0845 66.5341C55.8374 67.0398 55.4908 67.4332 55.0447 67.7145C54.6016 67.9957 54.0845 68.1364 53.4936 68.1364ZM53.4936 67.233C53.9425 67.233 54.3118 67.1179 54.6016 66.8878C54.8913 66.6577 55.1058 66.3551 55.245 65.9801C55.3842 65.6051 55.4538 65.1989 55.4538 64.7614C55.4538 64.3239 55.3842 63.9162 55.245 63.5384C55.1058 63.1605 54.8913 62.8551 54.6016 62.6222C54.3118 62.3892 53.9425 62.2727 53.4936 62.2727C53.0447 62.2727 52.6754 62.3892 52.3857 62.6222C52.0959 62.8551 51.8814 63.1605 51.7422 63.5384C51.603 63.9162 51.5334 64.3239 51.5334 64.7614C51.5334 65.1989 51.603 65.6051 51.7422 65.9801C51.8814 66.3551 52.0959 66.6577 52.3857 66.8878C52.6754 67.1179 53.0447 67.233 53.4936 67.233ZM60.4663 68.1364C59.9208 68.1364 59.4393 67.9986 59.0217 67.723C58.604 67.4446 58.2773 67.0526 58.0415 66.5469C57.8058 66.0384 57.6879 65.4375 57.6879 64.7443C57.6879 64.0568 57.8058 63.4602 58.0415 62.9545C58.2773 62.4489 58.6055 62.0582 59.0259 61.7827C59.4464 61.5071 59.9322 61.3693 60.4833 61.3693C60.9094 61.3693 61.2461 61.4403 61.4933 61.5824C61.7433 61.7216 61.9336 61.8807 62.0643 62.0597C62.1978 62.2358 62.3015 62.3807 62.3754 62.4943H62.4606V59.2727H63.4663V68H62.4947V66.9943H62.3754C62.3015 67.1136 62.1964 67.2642 62.06 67.446C61.9237 67.625 61.729 67.7855 61.4762 67.9276C61.2234 68.0668 60.8867 68.1364 60.4663 68.1364ZM60.6026 67.233C61.006 67.233 61.3469 67.1278 61.6254 66.9176C61.9038 66.7045 62.1154 66.4105 62.2603 66.0355C62.4052 65.6577 62.4776 65.2216 62.4776 64.7273C62.4776 64.2386 62.4066 63.8111 62.2646 63.4446C62.1225 63.0753 61.9123 62.7884 61.6339 62.5838C61.3555 62.3764 61.0117 62.2727 60.6026 62.2727C60.1765 62.2727 59.8214 62.3821 59.5373 62.6009C59.256 62.8168 59.0444 63.1108 58.9023 63.483C58.7631 63.8523 58.6935 64.267 58.6935 64.7273C58.6935 65.1932 58.7646 65.6165 58.9066 65.9972C59.0515 66.375 59.2646 66.6761 59.5458 66.9006C59.8299 67.1222 60.1822 67.233 60.6026 67.233ZM65.4478 68V61.4545H66.4535V68H65.4478ZM65.9592 60.3636C65.7631 60.3636 65.5941 60.2969 65.4521 60.1634C65.3129 60.0298 65.2433 59.8693 65.2433 59.6818C65.2433 59.4943 65.3129 59.3338 65.4521 59.2003C65.5941 59.0668 65.7631 59 65.9592 59C66.1552 59 66.3228 59.0668 66.462 59.2003C66.604 59.3338 66.6751 59.4943 66.6751 59.6818C66.6751 59.8693 66.604 60.0298 66.462 60.1634C66.3228 60.2969 66.1552 60.3636 65.9592 60.3636ZM71.142 61.4545V62.3068H67.75V61.4545H71.142ZM68.7386 59.8864H69.7443V66.125C69.7443 66.4091 69.7855 66.6222 69.8679 66.7642C69.9531 66.9034 70.0611 66.9972 70.1918 67.0455C70.3253 67.0909 70.4659 67.1136 70.6136 67.1136C70.7244 67.1136 70.8153 67.108 70.8864 67.0966C70.9574 67.0824 71.0142 67.071 71.0568 67.0625L71.2614 67.9659C71.1932 67.9915 71.098 68.017 70.9759 68.0426C70.8537 68.071 70.6989 68.0852 70.5114 68.0852C70.2273 68.0852 69.9489 68.0241 69.6761 67.902C69.4063 67.7798 69.1818 67.5938 69.0028 67.3438C68.8267 67.0938 68.7386 66.7784 68.7386 66.3977V59.8864ZM72.6548 68V61.4545H73.6605V68H72.6548ZM73.1662 60.3636C72.9702 60.3636 72.8011 60.2969 72.6591 60.1634C72.5199 60.0298 72.4503 59.8693 72.4503 59.6818C72.4503 59.4943 72.5199 59.3338 72.6591 59.2003C72.8011 59.0668 72.9702 59 73.1662 59C73.3622 59 73.5298 59.0668 73.669 59.2003C73.8111 59.3338 73.8821 59.4943 73.8821 59.6818C73.8821 59.8693 73.8111 60.0298 73.669 60.1634C73.5298 60.2969 73.3622 60.3636 73.1662 60.3636ZM78.2468 68.1364C77.6161 68.1364 77.0721 67.9972 76.6147 67.7188C76.1602 67.4375 75.8093 67.0455 75.5621 66.5426C75.3178 66.0369 75.1957 65.4489 75.1957 64.7784C75.1957 64.108 75.3178 63.517 75.5621 63.0057C75.8093 62.4915 76.1531 62.0909 76.5934 61.804C77.0366 61.5142 77.5536 61.3693 78.1445 61.3693C78.4854 61.3693 78.8221 61.4261 79.1545 61.5398C79.4869 61.6534 79.7894 61.8381 80.0621 62.0938C80.3349 62.3466 80.5522 62.6818 80.7141 63.0994C80.8761 63.517 80.957 64.0312 80.957 64.642V65.0682H75.9116V64.1989H79.9343C79.9343 63.8295 79.8604 63.5 79.7127 63.2102C79.5678 62.9205 79.3604 62.6918 79.0906 62.5241C78.8235 62.3565 78.5082 62.2727 78.1445 62.2727C77.744 62.2727 77.3974 62.3722 77.1048 62.571C76.815 62.767 76.592 63.0227 76.4357 63.3381C76.2795 63.6534 76.2013 63.9915 76.2013 64.3523V64.9318C76.2013 65.4261 76.2866 65.8452 76.457 66.1889C76.6303 66.5298 76.8704 66.7898 77.1772 66.9688C77.484 67.1449 77.8406 67.233 78.2468 67.233C78.511 67.233 78.7496 67.196 78.9627 67.1222C79.1786 67.0455 79.3647 66.9318 79.521 66.7812C79.6772 66.6278 79.7979 66.4375 79.8832 66.2102L80.8548 66.483C80.7525 66.8125 80.5806 67.1023 80.3391 67.3523C80.0977 67.5994 79.7994 67.7926 79.4442 67.9318C79.0891 68.0682 78.69 68.1364 78.2468 68.1364ZM87.1232 62.9205L86.2198 63.1761C86.163 63.0256 86.0792 62.8793 85.9684 62.7372C85.8604 62.5923 85.7127 62.473 85.5252 62.3793C85.3377 62.2855 85.0977 62.2386 84.805 62.2386C84.4045 62.2386 84.0707 62.331 83.8036 62.5156C83.5394 62.6974 83.4073 62.929 83.4073 63.2102C83.4073 63.4602 83.4982 63.6577 83.68 63.8026C83.8619 63.9474 84.146 64.0682 84.5323 64.1648L85.5039 64.4034C86.0891 64.5455 86.5252 64.7628 86.8121 65.0554C87.0991 65.3452 87.2425 65.7187 87.2425 66.1761C87.2425 66.5511 87.1346 66.8864 86.9187 67.1818C86.7056 67.4773 86.4073 67.7102 86.0238 67.8807C85.6403 68.0511 85.1942 68.1364 84.6857 68.1364C84.0181 68.1364 83.4656 67.9915 83.0281 67.7017C82.5906 67.4119 82.3136 66.9886 82.1971 66.4318L83.1516 66.1932C83.2425 66.5455 83.4144 66.8097 83.6673 66.9858C83.9229 67.1619 84.2567 67.25 84.6687 67.25C85.1374 67.25 85.5096 67.1506 85.7852 66.9517C86.0636 66.75 86.2028 66.5085 86.2028 66.2273C86.2028 66 86.1232 65.8097 85.9641 65.6562C85.805 65.5 85.5607 65.3835 85.2312 65.3068L84.1403 65.0511C83.5408 64.9091 83.1005 64.6889 82.8192 64.3906C82.5408 64.0895 82.4016 63.7131 82.4016 63.2614C82.4016 62.892 82.5053 62.5653 82.7127 62.2812C82.9229 61.9972 83.2085 61.7741 83.5692 61.6122C83.9329 61.4503 84.3448 61.3693 84.805 61.3693C85.4528 61.3693 85.9613 61.5114 86.3306 61.7955C86.7028 62.0795 86.967 62.4545 87.1232 62.9205Z" fill="#606773"/>
<g opacity="0.64">
<rect x="60.0002" y="2" width="44.0001" height="44.0001" rx="22" fill="#E2ED5C"/>
<path d="M83.4104 13.4585H79.6621C79.2681 13.4585 78.9181 13.7103 78.793 14.0839L75.4929 23.9319C75.2939 24.5258 75.7358 25.1399 76.3621 25.1399H79.0874C79.6774 25.1399 80.1138 25.6892 79.9803 26.2639L78.2528 33.7024C78.0258 34.6802 79.3093 35.2593 79.8921 34.442L88.3006 22.6495C88.7333 22.0427 88.2995 21.2007 87.5543 21.2007H83.0801C82.4354 21.2007 81.9921 20.5527 82.2258 19.9518L84.2648 14.7073C84.4984 14.1064 84.0551 13.4585 83.4104 13.4585Z" fill="#06070A"/>
</g>
<g opacity="0.63">
<rect x="0.000244141" y="2" width="43.9999" height="43.9999" rx="22" fill="#F7D16D"/>
<path d="M29.6772 25.8684C29.6772 19.1455 22.2073 13.9165 22.2073 13.9165C22.2073 13.9165 14.7373 19.1455 14.7373 25.8684C14.7373 27.8496 15.5243 29.7496 16.9252 31.1505C18.3261 32.5514 20.2261 33.3384 22.2073 33.3384C24.1884 33.3384 26.0884 32.5514 27.4893 31.1505C28.8902 29.7496 29.6772 27.8496 29.6772 25.8684Z" fill="#606773"/>
<path d="M26.6895 25.8684C26.6895 27.0571 26.2173 28.1971 25.3768 29.0376C24.5362 29.8782 23.3962 30.3504 22.2075 30.3504" stroke="#C1C4CB" stroke-width="1.375" stroke-linecap="round" stroke-linejoin="round"/>
</g>
<rect x="28" width="47.9999" height="47.9999" rx="24" fill="#CB9655"/>
<path d="M54.382 15.5H49.618C49.2393 15.5 48.893 15.714 48.7236 16.0528L46.2236 21.0528C45.8912 21.7177 46.3747 22.5 47.118 22.5H56.882C57.6253 22.5 58.1088 21.7177 57.7764 21.0528L55.2764 16.0528C55.107 15.714 54.7607 15.5 54.382 15.5Z" fill="white"/>
<path d="M47.382 25H42.618C42.2393 25 41.893 25.214 41.7236 25.5528L39.2236 30.5528C38.8912 31.2177 39.3747 32 40.118 32H49.882C50.6253 32 51.1088 31.2177 50.7764 30.5528L48.2764 25.5528C48.107 25.214 47.7607 25 47.382 25Z" fill="white"/>
<path d="M61.382 25H56.618C56.2393 25 55.893 25.214 55.7236 25.5528L53.2236 30.5528C52.8912 31.2177 53.3747 32 54.118 32H63.882C64.6253 32 65.1088 31.2177 64.7764 30.5528L62.2764 25.5528C62.107 25.214 61.7607 25 61.382 25Z" fill="white"/>
</svg>
