<svg width="111" height="72" viewBox="0 0 111 72" fill="none" xmlns="http://www.w3.org/2000/svg">
<circle opacity="0.4" cx="89" cy="24" r="22" fill="#00B28C"/>
<path d="M82.5833 31.3333L82.681 30.7046C82.8569 29.5741 83.5362 28.5758 84.6031 28.1628C85.7974 27.7006 87.5198 27.1965 89.3525 27.1965C91.1852 27.1965 92.9076 27.7006 94.1018 28.1628C95.1688 28.5758 95.8481 29.5741 96.0239 30.7046L96.1217 31.3333" stroke="white" stroke-width="1.46667" stroke-linecap="round" stroke-linejoin="round"/>
<path d="M89.3527 24.1881C91.4297 24.1881 93.1134 22.5044 93.1134 20.4274C93.1134 18.3505 91.4297 16.6667 89.3527 16.6667C87.2758 16.6667 85.592 18.3505 85.592 20.4274C85.592 22.5044 87.2758 24.1881 89.3527 24.1881Z" stroke="white" stroke-width="1.46667" stroke-linecap="round" stroke-linejoin="round"/>
<circle opacity="0.4" cx="22" cy="24" r="22" fill="#00B28C"/>
<path d="M15.5833 31.3333L15.681 30.7046C15.8569 29.5741 16.5362 28.5758 17.6031 28.1628C18.7974 27.7006 20.5198 27.1965 22.3525 27.1965C24.1852 27.1965 25.9076 27.7006 27.1018 28.1628C28.1688 28.5758 28.8481 29.5741 29.0239 30.7046L29.1217 31.3333" stroke="white" stroke-width="1.46667" stroke-linecap="round" stroke-linejoin="round"/>
<path d="M22.3527 24.1881C24.4297 24.1881 26.1134 22.5044 26.1134 20.4274C26.1134 18.3505 24.4297 16.6667 22.3527 16.6667C20.2758 16.6667 18.592 18.3505 18.592 20.4274C18.592 22.5044 20.2758 24.1881 22.3527 24.1881Z" stroke="white" stroke-width="1.46667" stroke-linecap="round" stroke-linejoin="round"/>
<circle cx="55" cy="24" r="24" fill="#FA8A34"/>
<path d="M64.7538 25.6308C64.6923 25.6308 64.6308 25.6308 64.6308 25.6308L55.7077 27.3538L52.6308 26.1231L56.6923 25.0769C57.1846 24.9538 57.5538 24.5231 57.5538 24.0308C57.5538 23.5385 57.1231 23.0462 56.5692 22.9846L52.8769 23.0462C52.3231 23.0462 51.7692 22.9231 51.2769 22.6769C50.3538 22.2462 49.4923 22 48.6923 22C48.0769 22 47.4 22.1231 46.9692 22.3077C46.552 22.5163 45.8695 23.0343 45.2965 23.4497C45.1116 23.5838 45 23.7976 45 24.026V28.9666C45 29.4562 45.3544 29.8738 45.8375 29.9533L55.4615 31.5385C55.5846 31.6 55.8923 31.6 56.0154 31.6C56.3846 31.6 56.6923 31.5385 57 31.4154L65.2462 27.7846C65.8 27.5385 66.0462 26.9231 65.8615 26.3692C65.6769 25.9385 65.2461 25.6308 64.7538 25.6308Z" fill="white"/>
<circle cx="59.5" cy="18.5" r="2.8" fill="white" stroke="#6ED4BE" stroke-width="0.6"/>
<path d="M20.1928 62H19.136C19.0735 61.696 18.9641 61.429 18.8079 61.1989C18.6545 60.9688 18.467 60.7756 18.2454 60.6193C18.0266 60.4602 17.7837 60.3409 17.5167 60.2614C17.2496 60.1818 16.9712 60.142 16.6815 60.142C16.1531 60.142 15.6744 60.2756 15.2454 60.5426C14.8192 60.8097 14.4798 61.2031 14.2269 61.723C13.9769 62.2429 13.8519 62.8807 13.8519 63.6364C13.8519 64.392 13.9769 65.0298 14.2269 65.5497C14.4798 66.0696 14.8192 66.4631 15.2454 66.7301C15.6744 66.9972 16.1531 67.1307 16.6815 67.1307C16.9712 67.1307 17.2496 67.0909 17.5167 67.0114C17.7837 66.9318 18.0266 66.8139 18.2454 66.6577C18.467 66.4986 18.6545 66.304 18.8079 66.0739C18.9641 65.8409 19.0735 65.5739 19.136 65.2727H20.1928C20.1133 65.7187 19.9684 66.1179 19.7582 66.4702C19.5479 66.8224 19.2866 67.1222 18.9741 67.3693C18.6616 67.6136 18.3107 67.7997 17.9215 67.9276C17.5352 68.0554 17.1218 68.1193 16.6815 68.1193C15.9371 68.1193 15.2752 67.9375 14.6957 67.5739C14.1161 67.2102 13.6602 66.6932 13.3278 66.0227C12.9954 65.3523 12.8292 64.5568 12.8292 63.6364C12.8292 62.7159 12.9954 61.9205 13.3278 61.25C13.6602 60.5795 14.1161 60.0625 14.6957 59.6989C15.2752 59.3352 15.9371 59.1534 16.6815 59.1534C17.1218 59.1534 17.5352 59.2173 17.9215 59.3452C18.3107 59.473 18.6616 59.6605 18.9741 59.9077C19.2866 60.152 19.5479 60.4503 19.7582 60.8026C19.9684 61.152 20.1133 61.5511 20.1928 62ZM21.7642 68V61.4545H22.7358V62.4432H22.804C22.9233 62.1193 23.1392 61.8565 23.4517 61.6548C23.7642 61.4531 24.1165 61.3523 24.5085 61.3523C24.5824 61.3523 24.6747 61.3537 24.7855 61.3565C24.8963 61.3594 24.9801 61.3636 25.0369 61.3693V62.392C25.0028 62.3835 24.9247 62.3707 24.8026 62.3537C24.6832 62.3338 24.5568 62.3239 24.4233 62.3239C24.1051 62.3239 23.821 62.3906 23.571 62.5241C23.3239 62.6548 23.1278 62.8366 22.983 63.0696C22.8409 63.2997 22.7699 63.5625 22.7699 63.858V68H21.7642ZM28.6889 68.1364C28.098 68.1364 27.5795 67.9957 27.1335 67.7145C26.6903 67.4332 26.3438 67.0398 26.0938 66.5341C25.8466 66.0284 25.723 65.4375 25.723 64.7614C25.723 64.0795 25.8466 63.4844 26.0938 62.9759C26.3438 62.4673 26.6903 62.0724 27.1335 61.7912C27.5795 61.5099 28.098 61.3693 28.6889 61.3693C29.2798 61.3693 29.7969 61.5099 30.2401 61.7912C30.6861 62.0724 31.0327 62.4673 31.2798 62.9759C31.5298 63.4844 31.6548 64.0795 31.6548 64.7614C31.6548 65.4375 31.5298 66.0284 31.2798 66.5341C31.0327 67.0398 30.6861 67.4332 30.2401 67.7145C29.7969 67.9957 29.2798 68.1364 28.6889 68.1364ZM28.6889 67.233C29.1378 67.233 29.5071 67.1179 29.7969 66.8878C30.0866 66.6577 30.3011 66.3551 30.4403 65.9801C30.5795 65.6051 30.6491 65.1989 30.6491 64.7614C30.6491 64.3239 30.5795 63.9162 30.4403 63.5384C30.3011 63.1605 30.0866 62.8551 29.7969 62.6222C29.5071 62.3892 29.1378 62.2727 28.6889 62.2727C28.2401 62.2727 27.8707 62.3892 27.581 62.6222C27.2912 62.8551 27.0767 63.1605 26.9375 63.5384C26.7983 63.9162 26.7287 64.3239 26.7287 64.7614C26.7287 65.1989 26.7983 65.6051 26.9375 65.9801C27.0767 66.3551 27.2912 66.6577 27.581 66.8878C27.8707 67.1179 28.2401 67.233 28.6889 67.233ZM34.4503 68L32.456 61.4545H33.5128L34.9276 66.4659H34.9957L36.3935 61.4545H37.4673L38.848 66.4489H38.9162L40.331 61.4545H41.3878L39.3935 68H38.4048L36.973 62.9716H36.8707L35.4389 68H34.4503ZM44.9663 68.1364C44.4208 68.1364 43.9393 67.9986 43.5217 67.723C43.104 67.4446 42.7773 67.0526 42.5415 66.5469C42.3058 66.0384 42.1879 65.4375 42.1879 64.7443C42.1879 64.0568 42.3058 63.4602 42.5415 62.9545C42.7773 62.4489 43.1055 62.0582 43.5259 61.7827C43.9464 61.5071 44.4322 61.3693 44.9833 61.3693C45.4094 61.3693 45.7461 61.4403 45.9933 61.5824C46.2433 61.7216 46.4336 61.8807 46.5643 62.0597C46.6978 62.2358 46.8015 62.3807 46.8754 62.4943H46.9606V59.2727H47.9663V68H46.9947V66.9943H46.8754C46.8015 67.1136 46.6964 67.2642 46.56 67.446C46.4237 67.625 46.229 67.7855 45.9762 67.9276C45.7234 68.0668 45.3867 68.1364 44.9663 68.1364ZM45.1026 67.233C45.506 67.233 45.8469 67.1278 46.1254 66.9176C46.4038 66.7045 46.6154 66.4105 46.7603 66.0355C46.9052 65.6577 46.9776 65.2216 46.9776 64.7273C46.9776 64.2386 46.9066 63.8111 46.7646 63.4446C46.6225 63.0753 46.4123 62.7884 46.1339 62.5838C45.8555 62.3764 45.5117 62.2727 45.1026 62.2727C44.6765 62.2727 44.3214 62.3821 44.0373 62.6009C43.756 62.8168 43.5444 63.1108 43.4023 63.483C43.2631 63.8523 43.1935 64.267 43.1935 64.7273C43.1935 65.1932 43.2646 65.6165 43.4066 65.9972C43.5515 66.375 43.7646 66.6761 44.0458 66.9006C44.3299 67.1222 44.6822 67.233 45.1026 67.233ZM54.3285 59.2727V68H53.3228V59.2727H54.3285ZM58.9148 68.1364C58.2841 68.1364 57.7401 67.9972 57.2827 67.7188C56.8281 67.4375 56.4773 67.0455 56.2301 66.5426C55.9858 66.0369 55.8636 65.4489 55.8636 64.7784C55.8636 64.108 55.9858 63.517 56.2301 63.0057C56.4773 62.4915 56.821 62.0909 57.2614 61.804C57.7045 61.5142 58.2216 61.3693 58.8125 61.3693C59.1534 61.3693 59.4901 61.4261 59.8224 61.5398C60.1548 61.6534 60.4574 61.8381 60.7301 62.0938C61.0028 62.3466 61.2202 62.6818 61.3821 63.0994C61.544 63.517 61.625 64.0312 61.625 64.642V65.0682H56.5795V64.1989H60.6023C60.6023 63.8295 60.5284 63.5 60.3807 63.2102C60.2358 62.9205 60.0284 62.6918 59.7585 62.5241C59.4915 62.3565 59.1761 62.2727 58.8125 62.2727C58.4119 62.2727 58.0653 62.3722 57.7727 62.571C57.483 62.767 57.2599 63.0227 57.1037 63.3381C56.9474 63.6534 56.8693 63.9915 56.8693 64.3523V64.9318C56.8693 65.4261 56.9545 65.8452 57.125 66.1889C57.2983 66.5298 57.5384 66.7898 57.8452 66.9688C58.152 67.1449 58.5085 67.233 58.9148 67.233C59.179 67.233 59.4176 67.196 59.6307 67.1222C59.8466 67.0455 60.0327 66.9318 60.1889 66.7812C60.3452 66.6278 60.4659 66.4375 60.5511 66.2102L61.5227 66.483C61.4205 66.8125 61.2486 67.1023 61.0071 67.3523C60.7656 67.5994 60.4673 67.7926 60.1122 67.9318C59.7571 68.0682 59.358 68.1364 58.9148 68.1364ZM64.1605 64.0625V68H63.1548V61.4545H64.1264V62.4773H64.2116C64.3651 62.1449 64.598 61.8778 64.9105 61.6761C65.223 61.4716 65.6264 61.3693 66.1207 61.3693C66.5639 61.3693 66.9517 61.4602 67.2841 61.642C67.6165 61.821 67.875 62.0938 68.0597 62.4602C68.2443 62.8239 68.3366 63.2841 68.3366 63.8409V68H67.331V63.9091C67.331 63.3949 67.1974 62.9943 66.9304 62.7074C66.6634 62.4176 66.2969 62.2727 65.831 62.2727C65.5099 62.2727 65.223 62.3423 64.9702 62.4815C64.7202 62.6207 64.5227 62.8239 64.3778 63.0909C64.233 63.358 64.1605 63.6818 64.1605 64.0625ZM72.646 68.1364C72.1005 68.1364 71.619 67.9986 71.2013 67.723C70.7837 67.4446 70.457 67.0526 70.2212 66.5469C69.9854 66.0384 69.8675 65.4375 69.8675 64.7443C69.8675 64.0568 69.9854 63.4602 70.2212 62.9545C70.457 62.4489 70.7852 62.0582 71.2056 61.7827C71.6261 61.5071 72.1119 61.3693 72.663 61.3693C73.0891 61.3693 73.4258 61.4403 73.6729 61.5824C73.9229 61.7216 74.1133 61.8807 74.244 62.0597C74.3775 62.2358 74.4812 62.3807 74.555 62.4943H74.6403V59.2727H75.646V68H74.6744V66.9943H74.555C74.4812 67.1136 74.3761 67.2642 74.2397 67.446C74.1033 67.625 73.9087 67.7855 73.6559 67.9276C73.4031 68.0668 73.0664 68.1364 72.646 68.1364ZM72.7823 67.233C73.1857 67.233 73.5266 67.1278 73.805 66.9176C74.0835 66.7045 74.2951 66.4105 74.44 66.0355C74.5849 65.6577 74.6573 65.2216 74.6573 64.7273C74.6573 64.2386 74.5863 63.8111 74.4442 63.4446C74.3022 63.0753 74.092 62.7884 73.8136 62.5838C73.5352 62.3764 73.1914 62.2727 72.7823 62.2727C72.3562 62.2727 72.0011 62.3821 71.717 62.6009C71.4357 62.8168 71.2241 63.1108 71.082 63.483C70.9428 63.8523 70.8732 64.267 70.8732 64.7273C70.8732 65.1932 70.9442 65.6165 71.0863 65.9972C71.2312 66.375 71.4442 66.6761 71.7255 66.9006C72.0096 67.1222 72.3619 67.233 72.7823 67.233ZM77.6275 68V61.4545H78.6332V68H77.6275ZM78.1388 60.3636C77.9428 60.3636 77.7738 60.2969 77.6317 60.1634C77.4925 60.0298 77.4229 59.8693 77.4229 59.6818C77.4229 59.4943 77.4925 59.3338 77.6317 59.2003C77.7738 59.0668 77.9428 59 78.1388 59C78.3349 59 78.5025 59.0668 78.6417 59.2003C78.7837 59.3338 78.8548 59.4943 78.8548 59.6818C78.8548 59.8693 78.7837 60.0298 78.6417 60.1634C78.5025 60.2969 78.3349 60.3636 78.1388 60.3636ZM81.4808 64.0625V68H80.4751V61.4545H81.4467V62.4773H81.532C81.6854 62.1449 81.9183 61.8778 82.2308 61.6761C82.5433 61.4716 82.9467 61.3693 83.4411 61.3693C83.8842 61.3693 84.272 61.4602 84.6044 61.642C84.9368 61.821 85.1953 62.0938 85.38 62.4602C85.5646 62.8239 85.657 63.2841 85.657 63.8409V68H84.6513V63.9091C84.6513 63.3949 84.5178 62.9943 84.2507 62.7074C83.9837 62.4176 83.6172 62.2727 83.1513 62.2727C82.8303 62.2727 82.5433 62.3423 82.2905 62.4815C82.0405 62.6207 81.843 62.8239 81.6982 63.0909C81.5533 63.358 81.4808 63.6818 81.4808 64.0625ZM90.1367 70.5909C89.6509 70.5909 89.2333 70.5284 88.8839 70.4034C88.5344 70.2812 88.2433 70.1193 88.0103 69.9176C87.7802 69.7188 87.5969 69.5057 87.4606 69.2784L88.2617 68.7159C88.3526 68.8352 88.4677 68.9716 88.6069 69.125C88.7461 69.2812 88.9364 69.4162 89.1779 69.5298C89.4222 69.6463 89.7418 69.7045 90.1367 69.7045C90.6651 69.7045 91.1012 69.5767 91.445 69.321C91.7887 69.0653 91.9606 68.6648 91.9606 68.1193V66.7898H91.8754C91.8015 66.9091 91.6964 67.0568 91.56 67.233C91.4265 67.4062 91.2333 67.5611 90.9805 67.6974C90.7305 67.831 90.3924 67.8977 89.9663 67.8977C89.4379 67.8977 88.9634 67.7727 88.543 67.5227C88.1254 67.2727 87.7944 66.9091 87.5501 66.4318C87.3086 65.9545 87.1879 65.375 87.1879 64.6932C87.1879 64.0227 87.3058 63.4389 87.5415 62.9418C87.7773 62.4418 88.1055 62.0554 88.5259 61.7827C88.9464 61.5071 89.4322 61.3693 89.9833 61.3693C90.4094 61.3693 90.7475 61.4403 90.9975 61.5824C91.2504 61.7216 91.4435 61.8807 91.5771 62.0597C91.7134 62.2358 91.8185 62.3807 91.8924 62.4943H91.9947V61.4545H92.9663V68.1875C92.9663 68.75 92.8384 69.2074 92.5827 69.5597C92.3299 69.9148 91.989 70.1747 91.56 70.3395C91.1339 70.5071 90.6594 70.5909 90.1367 70.5909ZM90.1026 66.9943C90.506 66.9943 90.8469 66.902 91.1254 66.7173C91.4038 66.5327 91.6154 66.267 91.7603 65.9205C91.9052 65.5739 91.9776 65.1591 91.9776 64.6761C91.9776 64.2045 91.9066 63.7884 91.7646 63.4276C91.6225 63.0668 91.4123 62.7841 91.1339 62.5795C90.8555 62.375 90.5117 62.2727 90.1026 62.2727C89.6765 62.2727 89.3214 62.3807 89.0373 62.5966C88.756 62.8125 88.5444 63.1023 88.4023 63.4659C88.2631 63.8295 88.1935 64.233 88.1935 64.6761C88.1935 65.1307 88.2646 65.5327 88.4066 65.8821C88.5515 66.2287 88.7646 66.5014 89.0458 66.7003C89.3299 66.8963 89.6822 66.9943 90.1026 66.9943Z" fill="#606773"/>
</svg>
